{"title":"Kya Kool Hain Hum 3 2016 Movies DVDScr XviD AAC New +Sample ☻rDX","uid":13284306,"size":739992724,"categoryP":"video","categoryS":"movies","magnet":"?xt=urn:btih:ea09b1e58fdfef4c8d0be1919e792d0ab307b10a&amp;dn=Kya+Kool+Hain+Hum+3+2016+Movies+DVDScr+XviD+AAC+New+%2BSample+%E2%98%BBrDX&amp;tr=udp%3A%2F%2Ftracker.leechers-paradise.org%3A6969&amp;tr=udp%3A%2F%2Fzer0day.ch%3A1337&amp;tr=udp%3A%2F%2Fopen.demonii.com%3A1337&amp;tr=udp%3A%2F%2Ftracker.coppersurfer.tk%3A6969&amp;tr=udp%3A%2F%2Fexodus.desync.com%3A6969","seeders":1,"leechers":0,"uploader":"basicssom","files":2,"time":1453522814,"description":"----------------------------------------------------------------\r\nKya Kool Hain Hum 3 2016 Hindi Movies DVDScr XviD AAC New Source with Sample ~ ☻rDX☻\r\n\r\nSCREEN SHOTS &amp; POSTER:\r\n  \nhttp://doctorhosts.com/2016/1/kkhh3ns/11.html  \nhttp://doctorhosts.com/2016/1/kkhh3ns/1.html  \nhttp://doctorhosts.com/2016/1/kkhh3ns/2.html  \nhttp://doctorhosts.com/2016/1/kkhh3ns/3.html  \nhttp://doctorhosts.com/2016/1/kkhh3ns/4.html  \nhttp://doctorhosts.com/2016/1/kkhh3ns/5.html  \nhttp://doctorhosts.com/2016/1/kkhh3ns/6.html  \nhttp://doctorhosts.com/2016/1/kkhh3ns/7.html  \nhttp://doctorhosts.com/2016/1/kkhh3ns/8.html  \nhttp://doctorhosts.com/2016/1/kkhh3ns/9.html  \nhttp://doctorhosts.com/2016/1/kkhh3ns/10.html\r\n\r\nFormat                                   : Matroska\r\nFormat version                           : Version 4 / Version 2\r\nFile size                                : 689 MiB\r\nDuration                                 : 2h 3mn\r\nOverall bit rate                         : 778 Kbps\r\nMovie name                               : Kya Kool Hain Hum 3 2016 Hindi Movies DVDScr XviD AAC New Source ☻rDX☻\r\n\r\nVideo\r\nID                                       : 1\r\nFormat                                   : MPEG-4 Visual\r\nFormat profile                           : Advanced   \r\nFormat settings, BVOP                    : Yes\r\nFormat settings, QPel                    : Yes\r\nFormat settings, GMC                     : No warppoints\r\nFormat settings, Matrix                  : Default (H.263)\r\nCodec ID                                 : V_MS/VFW/FOURCC / XVID\r\nCodec ID/Hint                            : XviD\r\nDuration                                 : 2h 3mn\r\nBit rate                                 : 682 Kbps\r\nWidth                                    : 640 pixels\r\nHeight                                   : 272 pixels\r\nDisplay aspect ratio                     : 2.35:1\r\nFrame rate mode                          : Constant\r\nFrame rate                               : 25.000 fps\r\nColor space                              : YUV\r\nChroma subsampling                       : 4:2:0\r\nBit depth                                : 8 bits\r\nScan type                                : Progressive\r\nCompression mode                         : Lossy\r\nBits/(Pixel*Frame)                       : 0.157\r\nStream size                              : 604 MiB (88%)\r\nTitle                                    : ☻rDX☻\r\nWriting library                          : XviD 1.2.1 (UTC 2008-12-04)\r\nDefault                                  : Yes\r\nForced                                   : No\r\n\r\nAudio\r\nID                                       : 2\r\nFormat                                   : MPEG Audio\r\nFormat version                           : Version 1\r\nFormat profile                           : Layer 3\r\nMode                                     : Joint stereo\r\nMode extension                           : MS Stereo\r\nCodec ID                                 : A_MPEG/L3\r\nCodec ID/Hint                            : MP3\r\nDuration                                 : 2h 3mn\r\nBit rate mode                            : Constant\r\nBit rate                                 : 80.0 Kbps\r\nChannel(s)                               : 2 channels\r\nSampling rate                            : 32.0 KHz\r\nCompression mode                         : Lossy\r\nStream size                              : 70.8 MiB (10%)\r\nTitle                                    : ☻rDX☻\r\nWriting library                          : LAME3.99r\r\nEncoding settings                        : -m j -V 4 -q 2 -lowpass 13.5 -b 80\r\nDefault                                  : Yes\r\nForced                                   : No\r\n\r\nIMDB                                      \nhttp://www.imdb.com/title/tt5290620/","torrent":{"xt":"urn:btih:ea09b1e58fdfef4c8d0be1919e792d0ab307b10a","amp;dn":"Kya+Kool+Hain+Hum+3+2016+Movies+DVDScr+XviD+AAC+New+%2BSample+%E2%98%BBrDX","amp;tr":["udp%3A%2F%2Ftracker.leechers-paradise.org%3A6969","udp%3A%2F%2Fzer0day.ch%3A1337","udp%3A%2F%2Fopen.demonii.com%3A1337","udp%3A%2F%2Ftracker.coppersurfer.tk%3A6969","udp%3A%2F%2Fexodus.desync.com%3A6969"],"infoHash":"ea09b1e58fdfef4c8d0be1919e792d0ab307b10a","infoHashBuffer":{"type":"Buffer","data":[234,9,177,229,143,223,239,76,141,11,225,145,158,121,45,10,179,7,177,10]},"announce":[],"urlList":[]}}